<svg xmlns="http://www.w3.org/2000/svg" xmlns:xlink="http://www.w3.org/1999/xlink" version="1.1" width="221.14117902184879" height="240.14240064544197" viewBox="207.70140796092335 57.098551000054954 221.14117902184879 240.14240064544197" xml:space="preserve">
<desc>Created with Fabric.js 4.6.0</desc>
<defs>
</defs>
<g transform="matrix(1 0 0 1 318.27 192.43)" id="dK3L1E8RaZY5OYMZWDZXH"  >
<g  >
		<g transform="matrix(1.27 0 0 1.39 0 0)" id="D5jRkwjeLW3Aspt9kjhBf"  >
<path style="stroke: none; stroke-width: 1; stroke-dasharray: none; stroke-linecap: butt; stroke-dashoffset: 0; stroke-linejoin: miter; stroke-miterlimit: 4; fill: rgb(226,67,41); fill-rule: nonzero; opacity: 1;" vector-effect="non-scaling-stroke"  transform=" translate(0, 0)" d="M 75.2876 -15.62696 L 75.0776 -16.18696 L 53.8776 -71.48696 C 53.4485 -72.57279 52.685 -73.4939 51.6976 -74.11695999999999 C 50.2036 -75.07334999999999 48.34482 -75.26532999999999 46.68688 -74.63448999999999 C 45.028940000000006 -74.00364999999998 43.76794 -72.62458999999998 43.287600000000005 -70.91695999999999 L 21.196100000000005 -70.91695999999999 L -15.198719999999998 -70.91695999999999 L -43.282399999999996 -70.91695999999999 C -43.76640999999999 -72.62190999999999 -45.02762 -73.99788 -46.68409 -74.62816 C -48.34055 -75.25844 -50.19744 -75.06890999999999 -51.6924 -74.11695999999999 C -52.6798 -73.4939 -53.4433 -72.57279 -53.8724 -71.48696 L -75.0624 -16.176959999999994 L -75.2824 -15.626959999999993 C -81.54972 0.752590000000005 -76.22407 19.302640000000007 -62.22239999999999 29.86304000000001 L -62.142399999999995 29.923040000000007 L -61.962399999999995 30.063040000000008 L -29.712399999999995 54.23304000000001 L -13.712399999999995 66.32304 L -3.9923999999999946 73.67304 C -1.6490999999999945 75.4431 1.5843000000000051 75.4431 3.9276000000000053 73.67304 L 13.647600000000006 66.32304 L 29.647600000000004 54.23304 L 62.1276 29.923040000000004 L 62.217600000000004 29.853040000000004 C 76.21834000000001 19.296690000000005 81.54771000000001 0.7519400000000047 75.2876 -15.626959999999993 z" stroke-linecap="round" />
</g>
		<g transform="matrix(1.27 0 0 1.39 49.67 26.45)" id="Lx42RThAC2fBeGD73KRV0"  >
<path style="stroke: none; stroke-width: 1; stroke-dasharray: none; stroke-linecap: butt; stroke-dashoffset: 0; stroke-linejoin: miter; stroke-miterlimit: 4; fill: rgb(252,109,38); fill-rule: nonzero; opacity: 1;" vector-effect="non-scaling-stroke"  transform=" translate(-265.67, -209.02)" d="M 302 174.37 L 301.79 173.81 C 291.46091589244173 175.92956694303467 281.7284813629767 180.30745503663965 273.29 186.63 L 226.74 221.82999999999998 L 256.38 244.23 L 288.86 219.92 L 288.95 219.85 C 302.9434829051667 209.28827431291256 308.2644168947434 190.74451355843368 302 174.37 Z" stroke-linecap="round" />
</g>
		<g transform="matrix(1.27 0 0 1.39 -0.04 74.28)" id="OI9Bp6Sx9kFBdtCRYiNDk"  >
<path style="stroke: none; stroke-width: 1; stroke-dasharray: none; stroke-linecap: butt; stroke-dashoffset: 0; stroke-linejoin: miter; stroke-miterlimit: 4; fill: rgb(252,163,38); fill-rule: nonzero; opacity: 1;" vector-effect="non-scaling-stroke"  transform=" translate(-226.68, -243.41)" d="M 197 244.23 L 213 256.32 L 222.72 263.67 C 225.06330228198962 265.4400643779789 228.29669771801036 265.4400643779789 230.64 263.67 L 240.35999999999999 256.32 L 256.36 244.23 L 226.72000000000003 221.82999999999998 Z" stroke-linecap="round" />
</g>
		<g transform="matrix(1.27 0 0 1.39 -49.69 26.45)" id="Mina8RqcTWM7AJZXDELel"  >
<path style="stroke: none; stroke-width: 1; stroke-dasharray: none; stroke-linecap: butt; stroke-dashoffset: 0; stroke-linejoin: miter; stroke-miterlimit: 4; fill: rgb(252,109,38); fill-rule: nonzero; opacity: 1;" vector-effect="non-scaling-stroke"  transform=" translate(-187.74, -209.02)" d="M 180.14 186.63 C 171.70457609246998 180.31063306409803 161.97535809903175 175.93607067392801 151.64999999999995 173.82 L 151.42999999999998 174.37 C 145.16268467161265 190.74954612931774 150.48833192872016 209.29959924768062 164.49 219.86 L 164.57 219.92000000000002 L 164.75 220.06 L 197 244.23 L 226.66 221.82999999999998 Z" stroke-linecap="round" />
</g>
</g>
</g>
<g transform="matrix(9.17 0 0 9.17 318.27 164.96)" id="Ro-itnqZbTMGfzgmM6x97"  >
<path style="stroke: none; stroke-width: 1; stroke-dasharray: none; stroke-linecap: butt; stroke-dashoffset: 0; stroke-linejoin: miter; stroke-miterlimit: 4; fill: rgb(0,0,0); fill-rule: nonzero; opacity: 1;" vector-effect="non-scaling-stroke"  transform=" translate(0, 0)" d="M 0 -11.70412 C -6.626 -11.70412 -12 -6.331119999999999 -12 0.29588000000000036 C -12 5.59788 -8.562 10.095880000000001 -3.7929999999999993 11.68288 C -3.193999999999999 11.793880000000001 -2.999999999999999 11.421880000000002 -2.999999999999999 11.10588 L -2.999999999999999 8.87188 C -6.337999999999999 9.59788 -7.0329999999999995 7.4558800000000005 -7.0329999999999995 7.4558800000000005 C -7.579 6.06888 -8.366 5.69988 -8.366 5.69988 C -9.455 4.95488 -8.283 4.97088 -8.283 4.97088 C -7.077999999999999 5.05488 -6.443999999999999 6.20788 -6.443999999999999 6.20788 C -5.373999999999999 8.04188 -3.636999999999999 7.511880000000001 -2.951999999999999 7.20488 C -2.844999999999999 6.42988 -2.533999999999999 5.8998800000000005 -2.189999999999999 5.60088 C -4.854999999999999 5.29588 -7.656999999999998 4.2668800000000005 -7.656999999999998 -0.33011999999999997 C -7.656999999999998 -1.64112 -7.187999999999998 -2.7111199999999998 -6.4209999999999985 -3.55112 C -6.544999999999998 -3.85412 -6.955999999999999 -5.07512 -6.3039999999999985 -6.72712 C -6.3039999999999985 -6.72712 -5.2959999999999985 -7.04912 -3.0029999999999983 -5.497120000000001 C -2.0459999999999985 -5.763120000000001 -1.0199999999999982 -5.896120000000001 1.7763568394002505e-15 -5.901120000000001 C 1.0200000000000018 -5.896120000000001 2.047000000000002 -5.763120000000001 3.0060000000000016 -5.497120000000001 C 5.2970000000000015 -7.04912 6.303000000000002 -6.727120000000001 6.303000000000002 -6.727120000000001 C 6.956000000000001 -5.074120000000001 6.545000000000002 -3.853120000000001 6.421000000000002 -3.551120000000001 C 7.1910000000000025 -2.711120000000001 7.656000000000002 -1.640120000000001 7.656000000000002 -0.33012000000000086 C 7.656000000000002 4.278879999999999 4.849000000000002 5.293879999999999 2.1770000000000023 5.590879999999999 C 2.6070000000000024 5.962879999999999 3.000000000000002 6.69288 3.000000000000002 7.81288 L 3.000000000000002 11.105879999999999 C 3.000000000000002 11.42488 3.1920000000000024 11.799879999999998 3.8010000000000024 11.68188 C 8.566000000000003 10.09288 12.000000000000002 5.595879999999999 12.000000000000002 0.29588000000000036 C 12.000000000000002 -6.331119999999999 6.627000000000002 -11.70412 1.7763568394002505e-15 -11.70412 z" stroke-linecap="round" />
</g>
</svg>
